<svg data-v-423bf9ae="" xmlns="http://www.w3.org/2000/svg" viewBox="0 0 221.2146302644962 163" class="iconAbove"><!----><!----><!----><g data-v-423bf9ae="" id="1746aae8-c929-4746-8aa6-e2f19b81d375" fill="black" transform="matrix(3.5377360400291322,0,0,3.5377360400291322,-1.3797165533591595,93.69575285618731)"><path d="M8.78 5.36L8.78 5.36L8.78 5.36Q8.03 7.68 6.86 9.96L6.86 9.96L6.86 9.96Q6.35 10.94 5.70 12.00L5.70 12.00L5.70 12.00Q5.06 13.06 4.26 14.12L4.26 14.12L4.26 14.12Q3.45 15.19 2.49 16.21L2.49 16.21L2.49 16.21Q1.52 17.23 0.39 18.12L0.39 18.12L0.39 18.12Q1.40 17.03 2.18 15.98L2.18 15.98L2.18 15.98Q2.97 14.94 3.56 13.97L3.56 13.97L3.56 13.97Q4.15 13.01 4.57 12.13L4.57 12.13L4.57 12.13Q4.98 11.25 5.27 10.49L5.27 10.49L5.27 10.49Q5.55 9.73 5.72 9.10L5.72 9.10L5.72 9.10Q5.89 8.47 5.99 7.99L5.99 7.99L5.99 7.99Q6.08 7.51 6.13 7.21L6.13 7.21L6.13 7.21Q6.17 6.90 6.19 6.79L6.19 6.79L6.19 6.79Q6.22 6.64 6.36 6.54L6.36 6.54L6.36 6.54Q6.50 6.43 6.71 6.35L6.71 6.35L6.71 6.35Q6.92 6.26 7.18 6.18L7.18 6.18L7.18 6.18Q7.44 6.10 7.71 5.99L7.71 5.99L7.71 5.99Q7.99 5.89 8.26 5.74L8.26 5.74L8.26 5.74Q8.54 5.58 8.78 5.36ZM16.62 6.23L16.62 6.23L16.62 6.23Q16.60 7.88 16.59 8.97L16.59 8.97L16.59 8.97Q16.58 10.06 16.57 10.72L16.57 10.72L16.57 10.72Q16.56 11.49 16.55 11.92L16.55 11.92L16.55 11.92Q16.54 12.41 16.48 12.91L16.48 12.91L16.48 12.91Q16.42 13.41 16.18 13.91L16.18 13.91L16.18 13.91Q15.93 14.42 15.46 14.94L15.46 14.94L15.46 14.94Q14.98 15.46 14.14 16.01L14.14 16.01L14.14 16.01Q13.61 16.36 13.15 16.59L13.15 16.59L13.15 16.59Q12.69 16.83 12.29 16.97L12.29 16.97L12.29 16.97Q11.89 17.12 11.55 17.18L11.55 17.18L11.55 17.18Q11.20 17.24 10.90 17.24L10.90 17.24L10.90 17.24Q10.77 17.24 10.53 17.22L10.53 17.22L10.53 17.22Q10.30 17.19 10.05 17.14L10.05 17.14L10.05 17.14Q9.79 17.08 9.54 17.00L9.54 17.00L9.54 17.00Q9.28 16.91 9.11 16.79L9.11 16.79L9.11 16.79Q8.94 16.67 8.88 16.52L8.88 16.52L8.88 16.52Q8.83 16.36 8.96 16.17L8.96 16.17L8.96 16.17Q9.10 16.00 9.32 15.80L9.32 15.80L9.32 15.80Q9.52 15.63 9.82 15.40L9.82 15.40L9.82 15.40Q10.12 15.18 10.56 14.93L10.56 14.93L10.56 14.93Q10.48 15.05 10.48 15.15L10.48 15.15L10.48 15.15Q10.48 15.25 10.51 15.32L10.51 15.32L10.51 15.32Q10.55 15.40 10.63 15.46L10.63 15.46L10.63 15.46Q10.71 15.52 10.94 15.61L10.94 15.61L10.94 15.61Q11.17 15.70 11.49 15.79L11.49 15.79L11.49 15.79Q11.81 15.89 12.20 15.96L12.20 15.96L12.20 15.96Q12.58 16.02 12.95 16.02L12.95 16.02L12.95 16.02Q13.45 16.02 13.78 15.87L13.78 15.87L13.78 15.87Q14.11 15.71 14.32 15.44L14.32 15.44L14.32 15.44Q14.53 15.18 14.65 14.83L14.65 14.83L14.65 14.83Q14.76 14.48 14.81 14.10L14.81 14.10L14.81 14.10Q14.85 13.71 14.86 13.32L14.86 13.32L14.86 13.32Q14.87 12.92 14.87 12.56L14.87 12.56L14.87 12.56Q14.87 11.76 14.88 11.04L14.88 11.04L14.88 11.04Q14.89 10.33 14.90 9.68L14.90 9.68L14.90 9.68Q14.90 9.02 14.90 8.41L14.90 8.41L14.90 8.41Q14.90 7.80 14.87 7.21L14.87 7.21L14.87 7.21Q14.65 7.17 14.45 7.16L14.45 7.16L14.45 7.16Q14.25 7.15 14.08 7.15L14.08 7.15L14.08 7.15Q13.69 7.15 13.40 7.20L13.40 7.20L13.40 7.20Q13.11 7.25 12.91 7.30L12.91 7.30L12.91 7.30Q12.71 7.36 12.60 7.41L12.60 7.41L12.60 7.41Q12.48 7.46 12.46 7.47L12.46 7.47L12.46 7.47Q12.78 7.20 13.08 6.97L13.08 6.97L13.08 6.97Q13.38 6.73 13.70 6.56L13.70 6.56L13.70 6.56Q14.01 6.39 14.34 6.30L14.34 6.30L14.34 6.30Q14.67 6.20 15.05 6.20L15.05 6.20L15.05 6.20Q15.44 6.20 15.85 6.22L15.85 6.22L15.85 6.22Q16.26 6.25 16.62 6.23ZM21.36 2.63L23.87 2.63L23.87 2.63Q23.80 2.63 23.65 2.74L23.65 2.74L23.65 2.74Q23.50 2.86 23.35 3.01L23.35 3.01L23.35 3.01Q23.19 3.16 23.06 3.29L23.06 3.29L23.06 3.29Q22.92 3.43 22.87 3.48L22.87 3.48L22.87 3.48Q22.80 3.53 22.67 3.67L22.67 3.67L22.67 3.67Q22.53 3.81 22.38 3.95L22.38 3.95L22.38 3.95Q22.22 4.09 22.08 4.21L22.08 4.21L22.08 4.21Q21.93 4.32 21.84 4.32L21.84 4.32L21.36 4.32L21.36 16.47L21.36 16.47Q21.36 16.57 21.32 16.80L21.32 16.80L21.32 16.80Q21.29 17.04 21.22 17.28L21.22 17.28L21.22 17.28Q21.15 17.52 21.04 17.71L21.04 17.71L21.04 17.71Q20.94 17.89 20.79 17.89L20.79 17.89L23.73 17.89L23.73 17.89Q23.65 17.89 23.51 18.01L23.51 18.01L23.51 18.01Q23.37 18.12 23.21 18.27L23.21 18.27L23.21 18.27Q23.05 18.42 22.92 18.56L22.92 18.56L22.92 18.56Q22.78 18.70 22.72 18.76L22.72 18.76L22.72 18.76Q22.66 18.81 22.53 18.95L22.53 18.95L22.53 18.95Q22.39 19.09 22.24 19.23L22.24 19.23L22.24 19.23Q22.09 19.37 21.94 19.48L21.94 19.48L21.94 19.48Q21.79 19.59 21.70 19.59L21.70 19.59L18.87 19.59L18.87 19.59Q19.13 19.26 19.23 18.88L19.23 18.88L19.23 18.88Q19.33 18.49 19.33 18.12L19.33 18.12L19.33 4.32L19.33 4.32Q19.33 4.21 19.44 4.09L19.44 4.09L19.44 4.09Q19.55 3.96 19.73 3.83L19.73 3.83L19.73 3.83Q19.91 3.69 20.14 3.54L20.14 3.54L20.14 3.54Q20.36 3.40 20.59 3.25L20.59 3.25L20.59 3.25Q20.82 3.10 21.02 2.94L21.02 2.94L21.02 2.94Q21.23 2.78 21.36 2.63L21.36 2.63ZM38.73 15.46L38.73 15.46L38.73 15.46Q38.44 15.75 38.13 16.01L38.13 16.01L38.13 16.01Q37.83 16.27 37.53 16.46L37.53 16.46L37.53 16.46Q37.23 16.65 36.93 16.75L36.93 16.75L36.93 16.75Q36.64 16.85 36.37 16.81L36.37 16.81L36.37 16.81Q36.09 16.77 35.94 16.58L35.94 16.58L35.94 16.58Q35.79 16.39 35.71 16.10L35.71 16.10L35.71 16.10Q35.64 15.80 35.61 15.42L35.61 15.42L35.61 15.42Q35.58 15.03 35.55 14.59L35.55 14.59L35.55 14.59Q35.52 14.23 35.46 13.47L35.46 13.47L35.46 13.47Q35.43 13.15 35.39 12.70L35.39 12.70L35.39 12.70Q35.36 12.26 35.31 11.69L35.31 11.69L35.31 11.69Q35.27 11.11 35.21 10.39L35.21 10.39L35.21 10.39Q35.14 9.67 35.08 8.77L35.08 8.77L35.08 8.77Q34.73 9.21 34.34 9.70L34.34 9.70L34.34 9.70Q33.95 10.20 33.57 10.73L33.57 10.73L33.57 10.73Q33.19 11.27 32.84 11.83L32.84 11.83L32.84 11.83Q32.48 12.39 32.21 12.95L32.21 12.95L32.21 12.95Q31.93 13.51 31.75 14.06L31.75 14.06L31.75 14.06Q31.56 14.62 31.52 15.13L31.52 15.13L30.00 16.71L30.00 16.71Q30.01 16.47 29.98 16.24L29.98 16.24L29.98 16.24Q29.96 16.00 29.91 15.82L29.91 15.82L29.91 15.82Q29.87 15.60 29.80 15.41L29.80 15.41L29.80 15.41Q29.48 14.61 29.12 13.84L29.12 13.84L29.12 13.84Q28.75 13.06 28.36 12.30L28.36 12.30L28.36 12.30Q27.97 11.55 27.57 10.80L27.57 10.80L27.57 10.80Q27.17 10.06 26.79 9.30L26.79 9.30L26.79 9.30Q26.63 9.99 26.51 10.56L26.51 10.56L26.51 10.56Q26.39 11.13 26.29 11.55L26.29 11.55L26.29 11.55Q26.18 12.04 26.10 12.44L26.10 12.44L26.10 12.44Q25.54 15.03 25.75 15.30L25.75 15.30L25.75 15.30Q25.81 15.36 25.93 15.40L25.93 15.40L25.93 15.40Q26.05 15.45 26.23 15.45L26.23 15.45L26.23 15.45Q26.44 15.45 26.70 15.36L26.70 15.36L26.70 15.36Q26.95 15.28 27.25 15.06L27.25 15.06L27.25 15.06Q26.81 15.47 26.45 15.82L26.45 15.82L26.45 15.82Q26.09 16.17 25.77 16.41L25.77 16.41L25.77 16.41Q25.46 16.65 25.19 16.75L25.19 16.75L25.19 16.75Q24.92 16.85 24.66 16.77L24.66 16.77L24.66 16.77Q24.47 16.70 24.39 16.53L24.39 16.53L24.39 16.53Q24.31 16.36 24.31 16.08L24.31 16.08L24.31 16.08Q24.31 15.69 24.44 15.10L24.44 15.10L24.44 15.10Q24.58 14.52 24.73 13.75L24.73 13.75L24.73 13.75Q24.83 13.33 24.95 12.77L24.95 12.77L24.95 12.77Q25.07 12.20 25.21 11.58L25.21 11.58L25.21 11.58Q25.35 10.96 25.48 10.31L25.48 10.31L25.48 10.31Q25.62 9.67 25.75 9.08L25.75 9.08L25.75 9.08Q25.87 8.50 25.97 8.03L25.97 8.03L25.97 8.03Q26.07 7.55 26.13 7.25L26.13 7.25L26.13 7.25Q26.16 7.16 26.34 6.97L26.34 6.97L26.34 6.97Q26.41 6.89 26.53 6.78L26.53 6.78L26.53 6.78Q26.64 6.67 26.80 6.51L26.80 6.51L26.80 6.51Q26.96 6.36 27.18 6.17L27.18 6.17L27.18 6.17Q27.39 5.97 27.67 5.74L27.67 5.74L27.67 5.74Q27.62 5.99 27.66 6.28L27.66 6.28L27.66 6.28Q27.70 6.56 27.77 6.81L27.77 6.81L27.77 6.81Q27.84 7.10 27.97 7.38L27.97 7.38L27.97 7.38Q28.06 7.59 28.28 8.03L28.28 8.03L28.28 8.03Q28.51 8.47 28.80 9.03L28.80 9.03L28.80 9.03Q29.09 9.58 29.42 10.22L29.42 10.22L29.42 10.22Q29.76 10.85 30.07 11.46L30.07 11.46L30.07 11.46Q30.38 12.08 30.65 12.63L30.65 12.63L30.65 12.63Q30.91 13.19 31.07 13.58L31.07 13.58L31.07 13.58Q31.37 13.04 31.74 12.51L31.74 12.51L31.74 12.51Q32.10 11.98 32.49 11.46L32.49 11.46L32.49 11.46Q32.87 10.93 33.26 10.40L33.26 10.40L33.26 10.40Q33.65 9.87 33.99 9.32L33.99 9.32L33.99 9.32Q34.34 8.78 34.62 8.20L34.62 8.20L34.62 8.20Q34.91 7.63 35.10 7.02L35.10 7.02L35.10 7.02Q35.28 6.81 35.53 6.57L35.53 6.57L35.53 6.57Q35.73 6.36 36.03 6.10L36.03 6.10L36.03 6.10Q36.33 5.83 36.72 5.52L36.72 5.52L36.72 5.52Q36.64 5.74 36.61 6.01L36.61 6.01L36.61 6.01Q36.59 6.28 36.57 6.53L36.57 6.53L36.57 6.53Q36.56 6.82 36.57 7.11L36.57 7.11L36.57 7.11Q36.58 7.30 36.61 7.71L36.61 7.71L36.61 7.71Q36.64 8.12 36.68 8.66L36.68 8.66L36.68 8.66Q36.72 9.21 36.78 9.85L36.78 9.85L36.78 9.85Q36.84 10.49 36.90 11.15L36.90 11.15L36.90 11.15Q36.96 11.81 37.02 12.44L37.02 12.44L37.02 12.44Q37.08 13.07 37.13 13.59L37.13 13.59L37.13 13.59Q37.19 14.12 37.24 14.49L37.24 14.49L37.24 14.49Q37.28 14.87 37.32 15.02L37.32 15.02L37.32 15.02Q37.35 15.19 37.43 15.31L37.43 15.31L37.43 15.31Q37.52 15.43 37.63 15.50L37.63 15.50L37.63 15.50Q37.73 15.57 37.86 15.60L37.86 15.60L37.86 15.60Q37.99 15.63 38.12 15.63L38.12 15.63L38.12 15.63Q38.30 15.63 38.46 15.58L38.46 15.58L38.46 15.58Q38.62 15.53 38.73 15.46ZM40.98 2.63L43.83 2.63L43.83 2.63Q43.65 2.99 43.55 3.27L43.55 3.27L43.55 3.27Q43.46 3.54 43.42 3.72L43.42 3.72L43.42 3.72Q43.36 3.94 43.36 4.08L43.36 4.08L43.36 17.89L43.36 17.89Q43.33 17.96 43.11 18.17L43.11 18.17L43.11 18.17Q43.01 18.26 42.86 18.39L42.86 18.39L42.86 18.39Q42.72 18.51 42.51 18.69L42.51 18.69L42.51 18.69Q42.29 18.86 42.01 19.08L42.01 19.08L42.01 19.08Q41.72 19.30 41.34 19.59L41.34 19.59L38.83 19.59L38.83 19.59Q38.90 19.59 39.05 19.48L39.05 19.48L39.05 19.48Q39.19 19.36 39.34 19.21L39.34 19.21L39.34 19.21Q39.50 19.07 39.63 18.92L39.63 18.92L39.63 18.92Q39.77 18.78 39.83 18.72L39.83 18.72L39.83 18.72Q39.87 18.69 39.95 18.61L39.95 18.61L39.95 18.61Q40.02 18.54 40.12 18.45L40.12 18.45L40.12 18.45Q40.21 18.35 40.31 18.26L40.31 18.26L40.31 18.26Q40.41 18.16 40.51 18.07L40.51 18.07L40.51 18.07Q40.61 17.99 40.70 17.94L40.70 17.94L40.70 17.94Q40.78 17.89 40.84 17.89L40.84 17.89L41.34 17.89L41.34 5.74L41.34 5.74Q41.34 5.64 41.38 5.41L41.38 5.41L41.38 5.41Q41.41 5.17 41.48 4.93L41.48 4.93L41.48 4.93Q41.55 4.69 41.65 4.50L41.65 4.50L41.65 4.50Q41.76 4.32 41.90 4.32L41.90 4.32L38.96 4.32L38.96 4.32Q39.05 4.32 39.19 4.20L39.19 4.20L39.19 4.20Q39.33 4.09 39.49 3.94L39.49 3.94L39.49 3.94Q39.64 3.79 39.78 3.65L39.78 3.65L39.78 3.65Q39.92 3.51 39.98 3.47L39.98 3.47L39.98 3.47Q40.04 3.41 40.17 3.27L40.17 3.27L40.17 3.27Q40.30 3.13 40.45 2.99L40.45 2.99L40.45 2.99Q40.60 2.84 40.75 2.73L40.75 2.73L40.75 2.73Q40.89 2.63 40.98 2.63L40.98 2.63ZM53.68 12.87L53.68 12.87L53.68 12.87Q53.61 13.49 53.30 14.05L53.30 14.05L53.30 14.05Q52.99 14.60 52.52 15.07L52.52 15.07L52.52 15.07Q52.06 15.54 51.47 15.92L51.47 15.92L51.47 15.92Q50.89 16.30 50.27 16.57L50.27 16.57L50.27 16.57Q49.66 16.83 49.03 16.97L49.03 16.97L49.03 16.97Q48.41 17.12 47.87 17.12L47.87 17.12L47.87 17.12Q47.61 17.11 47.33 17.08L47.33 17.08L47.33 17.08Q47.09 17.06 46.80 17.00L46.80 17.00L46.80 17.00Q46.50 16.95 46.22 16.85L46.22 16.85L46.53 7.70L46.53 7.70Q46.24 7.70 45.90 7.68L45.90 7.68L45.90 7.68Q45.57 7.66 45.17 7.61L45.17 7.61L46.92 6.62L46.92 6.62Q47.16 6.66 47.39 6.67L47.39 6.67L47.39 6.67Q47.62 6.69 47.82 6.69L47.82 6.69L47.82 6.69Q48.17 6.69 48.51 6.64L48.51 6.64L48.51 6.64Q48.84 6.60 49.16 6.54L49.16 6.54L49.16 6.54Q49.49 6.48 49.80 6.44L49.80 6.44L49.80 6.44Q50.11 6.39 50.44 6.39L50.44 6.39L50.44 6.39Q50.96 6.39 51.40 6.54L51.40 6.54L51.40 6.54Q51.84 6.69 52.16 6.97L52.16 6.97L52.16 6.97Q52.48 7.25 52.65 7.66L52.65 7.66L52.65 7.66Q52.81 8.07 52.80 8.61L52.80 8.61L52.80 8.61Q52.77 8.95 52.56 9.32L52.56 9.32L52.56 9.32Q52.47 9.47 52.34 9.65L52.34 9.65L52.34 9.65Q52.21 9.83 52.02 10.01L52.02 10.01L52.02 10.01Q51.83 10.20 51.58 10.38L51.58 10.38L51.58 10.38Q51.32 10.57 51.00 10.75L51.00 10.75L51.00 10.75Q51.12 10.73 51.24 10.73L51.24 10.73L51.24 10.73Q51.35 10.72 51.45 10.72L51.45 10.72L51.45 10.72Q51.90 10.72 52.23 10.81L52.23 10.81L52.23 10.81Q52.56 10.90 52.80 11.06L52.80 11.06L52.80 11.06Q53.05 11.21 53.20 11.40L53.20 11.40L53.20 11.40Q53.36 11.59 53.46 11.80L53.46 11.80L53.46 11.80Q53.68 12.28 53.68 12.87ZM49.62 16.06L49.62 16.06L49.62 16.06Q50.18 16.06 50.61 15.91L50.61 15.91L50.61 15.91Q51.04 15.75 51.34 15.45L51.34 15.45L51.34 15.45Q51.63 15.16 51.78 14.73L51.78 14.73L51.78 14.73Q51.93 14.30 51.93 13.75L51.93 13.75L51.93 13.75Q51.93 13.29 51.78 12.90L51.78 12.90L51.78 12.90Q51.62 12.50 51.33 12.22L51.33 12.22L51.33 12.22Q51.05 11.94 50.67 11.77L50.67 11.77L50.67 11.77Q50.29 11.61 49.83 11.61L49.83 11.61L49.83 11.61Q49.66 11.61 49.49 11.65L49.49 11.65L49.49 11.65Q49.31 11.68 49.14 11.77L49.14 11.77L49.14 11.77Q49.72 11.46 50.09 11.14L50.09 11.14L50.09 11.14Q50.46 10.81 50.67 10.50L50.67 10.50L50.67 10.50Q50.88 10.18 50.96 9.88L50.96 9.88L50.96 9.88Q51.04 9.58 51.04 9.32L51.04 9.32L51.04 9.32Q51.04 8.93 50.90 8.59L50.90 8.59L50.90 8.59Q50.76 8.25 50.52 8.00L50.52 8.00L50.52 8.00Q50.28 7.75 49.95 7.61L49.95 7.61L49.95 7.61Q49.62 7.47 49.25 7.47L49.25 7.47L49.25 7.47Q48.99 7.47 48.75 7.50L48.75 7.50L48.75 7.50Q48.52 7.52 48.29 7.55L48.29 7.55L47.98 15.80L47.98 15.80Q48.47 15.95 48.88 16.01L48.88 16.01L48.88 16.01Q49.28 16.06 49.62 16.06ZM62.92 18.12L62.92 18.12L62.92 18.12Q62.23 17.80 61.61 17.37L61.61 17.37L61.61 17.37Q60.98 16.93 60.42 16.42L60.42 16.42L60.42 16.42Q59.86 15.91 59.36 15.34L59.36 15.34L59.36 15.34Q58.86 14.76 58.43 14.15L58.43 14.15L58.43 14.15Q57.99 13.55 57.61 12.93L57.61 12.93L57.61 12.93Q57.23 12.31 56.91 11.71L56.91 11.71L56.91 11.71Q55.78 9.59 55.02 7.22L55.02 7.22L55.02 7.22Q54.99 7.11 55.05 7.02L55.05 7.02L55.05 7.02Q55.10 6.94 55.23 6.86L55.23 6.86L55.23 6.86Q55.36 6.78 55.55 6.69L55.55 6.69L55.55 6.69Q55.73 6.59 55.96 6.46L55.96 6.46L55.96 6.46Q56.18 6.32 56.42 6.13L56.42 6.13L56.42 6.13Q56.67 5.94 56.92 5.67L56.92 5.67L56.92 5.67Q56.94 5.78 56.99 6.13L56.99 6.13L56.99 6.13Q57.04 6.49 57.15 7.04L57.15 7.04L57.15 7.04Q57.26 7.59 57.45 8.33L57.45 8.33L57.45 8.33Q57.64 9.06 57.94 9.93L57.94 9.93L57.94 9.93Q58.25 10.79 58.68 11.77L58.68 11.77L58.68 11.77Q59.12 12.75 59.72 13.79L59.72 13.79L59.72 13.79Q60.33 14.84 61.12 15.93L61.12 15.93L61.12 15.93Q61.91 17.03 62.92 18.12Z"></path></g><!----><g data-v-423bf9ae="" id="646e32a3-712c-4b56-b120-113fa69eef98" transform="matrix(1.5789473684210527,0,0,1.5789473684210527,48.34210526315789,-17.65789473684211)" stroke="none" fill="black"><path d="M40 68.5c-15.7 0-28.5-12.8-28.5-28.5S24.3 11.5 40 11.5 68.5 24.3 68.5 40 55.7 68.5 40 68.5zm0-55c-14.6 0-26.5 11.9-26.5 26.5S25.4 66.5 40 66.5 66.5 54.6 66.5 40 54.6 13.5 40 13.5z"></path></g><!----></svg>