<svg xmlns="http://www.w3.org/2000/svg" version="1.1" xmlns:xlink="http://www.w3.org/1999/xlink" xmlns:svgjs="http://svgjs.com/svgjs" width="1440" height="560" preserveAspectRatio="none" viewBox="0 0 1440 560"><g mask="url(&quot;#SvgjsMask1401&quot;)" fill="none"><rect width="1440" height="560" x="0" y="0" fill="url(#SvgjsLinearGradient1402)"></rect><path d="M1044.043,297.688C1067.899,298.159,1091.181,285.758,1101.996,264.489C1112.031,244.755,1103.643,222.174,1092.025,203.328C1081.124,185.644,1064.793,171.482,1044.043,170.482C1021.501,169.396,998.785,178.842,987.323,198.283C975.702,217.994,978.581,242.404,989.921,262.278C1001.373,282.348,1020.94,297.232,1044.043,297.688" fill="rgba(6, 11, 0, 0.4)" class="triangle-float1"></path><path d="M993.283,721.439C1035.2,719.185,1066.257,687.946,1088.173,652.143C1111.425,614.157,1132.051,568.653,1110.749,529.54C1088.824,489.282,1039.12,478.538,993.283,477.913C946.021,477.268,894.941,486.025,870.132,526.257C844.364,568.045,852.711,621.873,878.908,663.393C903.36,702.148,947.525,723.899,993.283,721.439" fill="rgba(6, 11, 0, 0.4)" class="triangle-float1"></path><path d="M1405.04,637.98C1456.557,639.815,1515.909,639.484,1542.969,595.607C1570.837,550.42,1549.458,493.881,1521.89,448.511C1495.629,405.292,1455.515,371.75,1405.04,368.616C1348.572,365.109,1287.664,382.882,1260.026,432.249C1232.831,480.826,1251.071,540.847,1283.145,586.35C1310.393,625.006,1357.776,636.296,1405.04,637.98" fill="rgba(6, 11, 0, 0.4)" class="triangle-float2"></path><path d="M944.506,241.576C971.507,241.174,995.282,224.796,1008.397,201.191C1021.13,178.273,1020.098,150.918,1007.712,127.812C994.536,103.233,972.349,83.586,944.506,82.004C913.901,80.265,882.382,93.045,867.5,119.844C852.954,146.038,861.218,177.821,877.236,203.142C892.033,226.534,916.83,241.988,944.506,241.576" fill="rgba(6, 11, 0, 0.4)" class="triangle-float2"></path><path d="M686.237,149.073C723.43,147.241,756.854,127.416,775.431,95.143C793.965,62.945,794.841,23.827,777.13,-8.831C758.534,-43.121,725.241,-68.764,686.237,-69.328C646.34,-69.905,611.399,-45.624,590.671,-11.529C569.007,24.105,559.084,68.909,580.409,104.747C601.37,139.973,645.296,151.089,686.237,149.073" fill="rgba(6, 11, 0, 0.4)" class="triangle-float1"></path><path d="M1256.782,269.273C1295.057,267.992,1328.653,246.96,1348.893,214.45C1370.514,179.72,1381.189,136.663,1361.751,100.666C1341.491,63.148,1299.3,40.664,1256.782,43.871C1218.533,46.756,1195.413,81.547,1176.069,114.67C1156.479,148.213,1135.363,186.558,1153.34,220.992C1172.215,257.146,1216.021,270.637,1256.782,269.273" fill="rgba(6, 11, 0, 0.4)" class="triangle-float3"></path></g><defs><mask id="SvgjsMask1401"><rect width="1440" height="560" fill="#ffffff"></rect></mask><linearGradient x1="15.28%" y1="-39.29%" x2="84.72%" y2="139.29%" gradientUnits="userSpaceOnUse" id="SvgjsLinearGradient1402"><stop stop-color="rgba(4, 14, 24, 1)" offset="0.17"></stop><stop stop-color="rgba(5, 128, 57, 1)" offset="0.58"></stop><stop stop-color="rgba(0, 158, 67, 1)" offset="1"></stop></linearGradient><style>
            @keyframes float1 {
                0%{transform: translate(0, 0)}
                50%{transform: translate(-10px, 0)}
                100%{transform: translate(0, 0)}
            }

            .triangle-float1 {
                animation: float1 5s infinite;
            }

            @keyframes float2 {
                0%{transform: translate(0, 0)}
                50%{transform: translate(-5px, -5px)}
                100%{transform: translate(0, 0)}
            }

            .triangle-float2 {
                animation: float2 4s infinite;
            }

            @keyframes float3 {
                0%{transform: translate(0, 0)}
                50%{transform: translate(0, -10px)}
                100%{transform: translate(0, 0)}
            }

            .triangle-float3 {
                animation: float3 6s infinite;
            }
        </style></defs></svg>